<svg width="22" height="21" viewBox="0 0 22 21" fill="none" xmlns="http://www.w3.org/2000/svg">
<path fill-rule="evenodd" clip-rule="evenodd" d="M2.34164 4.97884C2.07116 4.89096 1.7865 5.06698 1.74428 5.34823L1.23764 8.72303C1.16507 9.20645 1.45263 9.67149 1.91754 9.82255L19.1768 15.4304C19.9833 15.6925 20.8495 15.2511 21.1115 14.4446C21.3839 13.6063 20.8961 12.7113 20.044 12.4859L14.7324 11.0805L13.4043 1.70728C13.3492 1.31838 13.0773 0.994827 12.7038 0.873449C12.0778 0.670055 11.4245 1.09886 11.3621 1.7541L10.602 9.73843L3.34583 7.79587L2.64252 5.29209C2.6009 5.14394 2.488 5.02639 2.34164 4.97884ZM21.1777 18.4521H0.647705V20.0314H21.1777V18.4521Z" fill="#6E7491"/>
</svg>
